<?xml version="1.0" encoding="utf-8"?>
<!-- Generator: Adobe Illustrator 16.0.4, SVG Export Plug-In . SVG Version: 6.00 Build 0)  -->
<!DOCTYPE svg PUBLIC "-//W3C//DTD SVG 1.1//EN" "http://www.w3.org/Graphics/SVG/1.1/DTD/svg11.dtd" [
	<!ENTITY ns_flows "http://ns.adobe.com/Flows/1.0/">
	<!ENTITY ns_extend "http://ns.adobe.com/Extensibility/1.0/">
	<!ENTITY ns_ai "http://ns.adobe.com/AdobeIllustrator/10.0/">
	<!ENTITY ns_graphs "http://ns.adobe.com/Graphs/1.0/">
]>
<svg version="1.1" xmlns:x="&ns_extend;" xmlns:i="&ns_ai;" xmlns:graph="&ns_graphs;"
	 xmlns="http://www.w3.org/2000/svg" xmlns:xlink="http://www.w3.org/1999/xlink" xmlns:a="http://ns.adobe.com/AdobeSVGViewerExtensions/3.0/"
	 x="0px" y="0px" width="160px" height="40px" viewBox="0 0 160 40" enable-background="new 0 0 160 40" xml:space="preserve">
<g id="fondo">
</g>
<g id="footer">
</g>
<g id="contenido">
</g>
<g id="header">
	<g>
		<g>
			<g>
				<path fill="#FFFFFF" d="M155.517,24.268c0.084,0,0.15-0.01,0.201-0.035c0.057-0.021,0.082-0.078,0.082-0.164
					c0-0.039-0.014-0.07-0.027-0.096c-0.02-0.021-0.043-0.041-0.07-0.051c-0.031-0.016-0.061-0.021-0.098-0.027
					c-0.035-0.006-0.07-0.008-0.102-0.008h-0.242v0.381H155.517z M155.521,23.664c0.182,0,0.32,0.031,0.42,0.096
					c0.096,0.064,0.145,0.178,0.145,0.334c0,0.066-0.01,0.119-0.029,0.17c-0.02,0.047-0.047,0.086-0.078,0.113
					c-0.037,0.029-0.078,0.055-0.123,0.072c-0.047,0.014-0.096,0.025-0.148,0.029l0.387,0.633h-0.299l-0.354-0.621h-0.18v0.621
					h-0.287v-1.447H155.521z M154.591,24.793c0.051,0.125,0.121,0.234,0.207,0.324c0.088,0.092,0.193,0.16,0.309,0.213
					c0.119,0.051,0.246,0.076,0.383,0.076c0.133,0,0.26-0.025,0.377-0.076c0.119-0.053,0.221-0.121,0.309-0.213
					c0.086-0.09,0.156-0.199,0.209-0.324c0.051-0.121,0.076-0.256,0.076-0.406c0-0.145-0.025-0.281-0.076-0.402
					c-0.053-0.125-0.123-0.23-0.209-0.32c-0.088-0.086-0.189-0.158-0.309-0.209c-0.117-0.051-0.244-0.078-0.377-0.078
					c-0.137,0-0.264,0.027-0.383,0.078c-0.115,0.051-0.221,0.123-0.309,0.209c-0.086,0.09-0.156,0.195-0.207,0.32
					c-0.049,0.121-0.076,0.258-0.076,0.402C154.515,24.537,154.542,24.672,154.591,24.793L154.591,24.793z M154.273,23.857
					c0.072-0.16,0.168-0.295,0.291-0.406c0.121-0.109,0.264-0.197,0.424-0.258s0.328-0.09,0.502-0.09s0.342,0.029,0.5,0.09
					c0.16,0.061,0.301,0.148,0.424,0.258c0.123,0.111,0.219,0.246,0.291,0.406c0.072,0.162,0.107,0.338,0.107,0.529
					c0,0.201-0.035,0.377-0.107,0.537c-0.072,0.158-0.168,0.295-0.291,0.406c-0.123,0.113-0.264,0.197-0.424,0.26
					c-0.158,0.059-0.326,0.088-0.5,0.088s-0.342-0.029-0.502-0.088c-0.16-0.062-0.303-0.146-0.424-0.26
					c-0.123-0.111-0.219-0.248-0.291-0.406c-0.072-0.16-0.109-0.336-0.109-0.537C154.164,24.195,154.201,24.02,154.273,23.857
					L154.273,23.857z"/>
				<path fill="#FFBE00" d="M49.576,27.51c-0.158,0.049-0.326,0.088-0.506,0.121s-0.369,0.059-0.566,0.08
					c-0.199,0.021-0.395,0.045-0.594,0.078c-0.186,0.033-0.371,0.074-0.551,0.129c-0.178,0.053-0.336,0.121-0.473,0.213
					c-0.133,0.092-0.238,0.203-0.318,0.342s-0.123,0.311-0.123,0.523c0,0.201,0.043,0.371,0.123,0.508s0.189,0.246,0.33,0.324
					s0.301,0.137,0.49,0.164c0.186,0.031,0.379,0.051,0.574,0.051c0.49,0,0.867-0.072,1.135-0.225
					c0.268-0.145,0.465-0.322,0.592-0.531c0.129-0.205,0.207-0.412,0.236-0.625s0.039-0.383,0.039-0.508v-0.842
					C49.863,27.396,49.734,27.463,49.576,27.51L49.576,27.51z M44.681,24.332c0.256-0.348,0.582-0.631,0.979-0.842
					s0.84-0.361,1.334-0.451s0.99-0.135,1.492-0.135c0.453,0,0.912,0.029,1.377,0.088c0.467,0.057,0.889,0.172,1.275,0.342
					c0.383,0.168,0.697,0.404,0.941,0.705c0.244,0.299,0.365,0.703,0.365,1.197v4.268c0,0.369,0.023,0.723,0.072,1.062
					c0.045,0.338,0.127,0.59,0.242,0.762h-2.51c-0.049-0.127-0.086-0.256-0.115-0.389c-0.031-0.133-0.049-0.268-0.061-0.404
					c-0.395,0.369-0.861,0.631-1.395,0.775c-0.537,0.146-1.082,0.223-1.641,0.223c-0.432,0-0.832-0.047-1.205-0.145
					c-0.371-0.094-0.697-0.24-0.977-0.443c-0.279-0.201-0.498-0.453-0.654-0.76c-0.158-0.305-0.234-0.672-0.234-1.096
					c0-0.465,0.088-0.848,0.27-1.15c0.18-0.299,0.412-0.543,0.699-0.719c0.283-0.18,0.609-0.316,0.977-0.406
					c0.361-0.092,0.734-0.158,1.107-0.213c0.371-0.053,0.738-0.1,1.098-0.127c0.361-0.035,0.68-0.08,0.957-0.145
					c0.283-0.064,0.504-0.154,0.664-0.277c0.166-0.121,0.238-0.301,0.225-0.529c0-0.246-0.039-0.439-0.127-0.582
					c-0.088-0.145-0.203-0.252-0.35-0.332c-0.145-0.078-0.312-0.131-0.504-0.158c-0.193-0.029-0.398-0.039-0.621-0.039
					c-0.488,0-0.871,0.092-1.152,0.283c-0.277,0.191-0.439,0.508-0.488,0.953h-2.475C44.281,25.117,44.427,24.682,44.681,24.332
					L44.681,24.332z"/>
				<path fill="#FFBE00" d="M56.248,23.123v1.113h0.035c0.326-0.422,0.719-0.75,1.178-0.982c0.459-0.236,0.984-0.35,1.58-0.35
					c0.57,0,1.09,0.1,1.559,0.301c0.473,0.203,0.83,0.557,1.074,1.062c0.27-0.361,0.631-0.676,1.092-0.951
					c0.457-0.273,1.002-0.412,1.629-0.412c0.479,0,0.918,0.051,1.326,0.16c0.408,0.107,0.754,0.273,1.049,0.504
					c0.287,0.232,0.516,0.537,0.68,0.914c0.162,0.377,0.244,0.828,0.244,1.355v5.49h-2.479V26.68c0-0.275-0.012-0.533-0.031-0.773
					c-0.027-0.248-0.09-0.459-0.195-0.639c-0.104-0.182-0.258-0.32-0.463-0.428c-0.203-0.109-0.479-0.158-0.826-0.158
					c-0.35,0-0.633,0.061-0.848,0.18c-0.213,0.123-0.383,0.281-0.506,0.479c-0.121,0.195-0.203,0.418-0.246,0.666
					c-0.039,0.248-0.059,0.496-0.059,0.752v4.57h-2.479v-4.602c0-0.242-0.006-0.48-0.016-0.721c-0.012-0.236-0.061-0.459-0.15-0.658
					c-0.086-0.201-0.232-0.363-0.434-0.486c-0.205-0.119-0.504-0.18-0.9-0.18c-0.115,0-0.27,0.023-0.461,0.072
					c-0.191,0.043-0.379,0.135-0.561,0.268c-0.178,0.133-0.332,0.322-0.461,0.572c-0.127,0.246-0.191,0.572-0.191,0.975v4.76H53.91
					v-8.205H56.248z"/>
				<path fill="#FFBE00" d="M74.349,27.51c-0.158,0.049-0.326,0.088-0.506,0.121c-0.182,0.033-0.371,0.059-0.568,0.08
					s-0.395,0.045-0.592,0.078c-0.186,0.033-0.371,0.074-0.551,0.129c-0.18,0.053-0.338,0.121-0.473,0.213
					c-0.133,0.092-0.24,0.203-0.32,0.342c-0.082,0.139-0.123,0.311-0.123,0.523c0,0.201,0.041,0.371,0.123,0.508
					c0.08,0.137,0.189,0.246,0.33,0.324c0.137,0.078,0.301,0.137,0.488,0.164c0.188,0.031,0.381,0.051,0.576,0.051
					c0.488,0,0.865-0.072,1.135-0.225c0.266-0.145,0.465-0.322,0.594-0.531c0.127-0.205,0.203-0.412,0.234-0.625
					c0.029-0.213,0.043-0.383,0.043-0.508v-0.842C74.636,27.396,74.505,27.463,74.349,27.51L74.349,27.51z M69.455,24.332
					c0.256-0.348,0.582-0.631,0.977-0.842c0.396-0.211,0.84-0.361,1.334-0.451s0.994-0.135,1.492-0.135
					c0.453,0,0.912,0.029,1.379,0.088c0.465,0.057,0.889,0.172,1.271,0.342c0.387,0.168,0.699,0.404,0.943,0.705
					c0.246,0.299,0.367,0.703,0.367,1.197v4.268c0,0.369,0.02,0.723,0.068,1.062c0.047,0.338,0.129,0.59,0.246,0.762h-2.514
					c-0.045-0.127-0.084-0.256-0.113-0.389s-0.049-0.268-0.062-0.404c-0.395,0.369-0.859,0.631-1.396,0.775
					c-0.531,0.146-1.08,0.223-1.641,0.223c-0.428,0-0.828-0.047-1.201-0.145c-0.371-0.094-0.695-0.24-0.977-0.443
					c-0.279-0.201-0.498-0.453-0.658-0.76c-0.152-0.305-0.23-0.672-0.23-1.096c0-0.465,0.088-0.848,0.271-1.15
					c0.178-0.299,0.412-0.543,0.697-0.719c0.285-0.18,0.611-0.316,0.977-0.406c0.365-0.092,0.734-0.158,1.107-0.213
					c0.371-0.053,0.738-0.1,1.098-0.127c0.361-0.035,0.684-0.08,0.961-0.145c0.279-0.064,0.498-0.154,0.662-0.277
					c0.162-0.121,0.236-0.301,0.227-0.529c0-0.246-0.043-0.439-0.131-0.582c-0.088-0.145-0.205-0.252-0.35-0.332
					c-0.145-0.078-0.312-0.131-0.504-0.158c-0.191-0.029-0.398-0.039-0.621-0.039c-0.488,0-0.871,0.092-1.152,0.283
					c-0.277,0.191-0.441,0.508-0.486,0.953h-2.479C69.052,25.117,69.199,24.682,69.455,24.332L69.455,24.332z"/>
				<path fill="#FFBE00" d="M80.966,23.123v1.525h0.035c0.117-0.254,0.273-0.488,0.471-0.703c0.199-0.219,0.426-0.402,0.682-0.557
					c0.254-0.152,0.529-0.271,0.82-0.357s0.59-0.127,0.906-0.127c0.162,0,0.342,0.027,0.539,0.078v2.096
					c-0.115-0.021-0.254-0.041-0.416-0.057c-0.166-0.016-0.32-0.023-0.473-0.023c-0.453,0-0.836,0.068-1.148,0.205
					c-0.314,0.137-0.568,0.324-0.762,0.566c-0.189,0.236-0.326,0.51-0.408,0.832c-0.082,0.314-0.123,0.656-0.123,1.029v3.697h-2.477
					v-8.205H80.966z"/>
			</g>
			<path fill="#FFBE00" d="M87.421,31.328h-2.477v-8.205h2.477V31.328z M84.945,20.002h2.477v1.854h-2.477V20.002z"/>
			<rect x="88.923" y="20.002" fill="#FFBE00" width="2.477" height="11.326"/>
			<rect x="92.898" y="20.002" fill="#FFBE00" width="2.479" height="11.326"/>
			<g>
				<path fill="#FFBE00" d="M102.031,27.51c-0.154,0.049-0.324,0.088-0.504,0.121c-0.182,0.033-0.369,0.059-0.568,0.08
					c-0.197,0.021-0.396,0.045-0.592,0.078c-0.188,0.033-0.369,0.074-0.549,0.129c-0.182,0.053-0.338,0.121-0.471,0.213
					c-0.135,0.092-0.242,0.203-0.324,0.342S98.9,28.783,98.9,28.996c0,0.201,0.041,0.371,0.123,0.508s0.191,0.246,0.332,0.324
					c0.137,0.078,0.301,0.137,0.488,0.164c0.186,0.031,0.377,0.051,0.574,0.051c0.49,0,0.867-0.072,1.135-0.225
					c0.266-0.145,0.465-0.322,0.592-0.531c0.131-0.205,0.209-0.412,0.236-0.625c0.029-0.213,0.045-0.383,0.045-0.508v-0.842
					C102.32,27.396,102.189,27.463,102.031,27.51L102.031,27.51z M97.138,24.332c0.256-0.348,0.58-0.631,0.979-0.842
					c0.395-0.211,0.84-0.361,1.334-0.451s0.99-0.135,1.492-0.135c0.453,0,0.912,0.029,1.377,0.088
					c0.465,0.057,0.891,0.172,1.273,0.342c0.385,0.168,0.697,0.404,0.943,0.705c0.242,0.299,0.365,0.703,0.365,1.197v4.268
					c0,0.369,0.023,0.723,0.07,1.062c0.045,0.338,0.125,0.59,0.242,0.762h-2.51c-0.049-0.127-0.084-0.256-0.115-0.389
					c-0.029-0.133-0.051-0.268-0.061-0.404c-0.396,0.369-0.861,0.631-1.396,0.775c-0.533,0.146-1.08,0.223-1.641,0.223
					c-0.43,0-0.828-0.047-1.203-0.145c-0.371-0.094-0.697-0.24-0.975-0.443c-0.283-0.201-0.498-0.453-0.654-0.76
					c-0.158-0.305-0.236-0.672-0.236-1.096c0-0.465,0.09-0.848,0.27-1.15c0.182-0.299,0.414-0.543,0.697-0.719
					c0.285-0.18,0.613-0.316,0.979-0.406c0.365-0.092,0.736-0.158,1.109-0.213c0.371-0.053,0.736-0.1,1.096-0.127
					c0.363-0.035,0.682-0.08,0.961-0.145c0.277-0.064,0.5-0.154,0.66-0.277c0.164-0.121,0.24-0.301,0.23-0.529
					c0-0.246-0.045-0.439-0.131-0.582c-0.088-0.145-0.205-0.252-0.348-0.332c-0.148-0.078-0.314-0.131-0.51-0.158
					c-0.189-0.029-0.396-0.039-0.617-0.039c-0.49,0-0.873,0.092-1.152,0.283s-0.439,0.508-0.486,0.953h-2.479
					C96.738,25.117,96.882,24.682,97.138,24.332L97.138,24.332z"/>
				<path fill="#FFBE00" d="M108.38,29.287c0.111,0.176,0.252,0.32,0.43,0.43c0.174,0.111,0.373,0.191,0.604,0.248
					c0.225,0.053,0.459,0.078,0.703,0.078c0.176,0,0.359-0.021,0.551-0.055c0.191-0.037,0.365-0.098,0.523-0.176
					c0.156-0.082,0.287-0.186,0.395-0.316c0.102-0.133,0.156-0.299,0.156-0.5c0-0.34-0.25-0.594-0.742-0.764
					c-0.494-0.168-1.186-0.336-2.07-0.506c-0.357-0.074-0.711-0.162-1.055-0.264c-0.342-0.096-0.648-0.229-0.914-0.396
					c-0.268-0.162-0.482-0.369-0.645-0.615c-0.166-0.252-0.246-0.553-0.246-0.914c0-0.527,0.113-0.961,0.34-1.301
					c0.227-0.338,0.527-0.605,0.898-0.803c0.373-0.193,0.793-0.33,1.258-0.412c0.463-0.078,0.941-0.117,1.43-0.117
					s0.963,0.041,1.42,0.127c0.463,0.086,0.873,0.229,1.232,0.43s0.66,0.467,0.898,0.801c0.234,0.33,0.379,0.754,0.426,1.262h-2.354
					c-0.033-0.436-0.217-0.73-0.543-0.885c-0.324-0.15-0.707-0.227-1.148-0.227c-0.143,0-0.293,0.004-0.455,0.021
					s-0.311,0.051-0.445,0.104s-0.246,0.131-0.342,0.232c-0.092,0.1-0.137,0.232-0.137,0.402c0,0.201,0.08,0.365,0.24,0.492
					c0.166,0.125,0.377,0.229,0.639,0.307c0.264,0.082,0.562,0.154,0.898,0.219c0.34,0.062,0.682,0.131,1.027,0.205
					c0.363,0.072,0.715,0.164,1.059,0.27c0.342,0.105,0.646,0.246,0.914,0.418c0.27,0.176,0.484,0.395,0.646,0.65
					c0.162,0.264,0.244,0.58,0.244,0.961c0,0.541-0.117,0.992-0.355,1.357c-0.238,0.367-0.551,0.654-0.936,0.879
					c-0.383,0.223-0.82,0.381-1.318,0.467c-0.494,0.092-0.994,0.137-1.506,0.137c-0.525,0-1.039-0.047-1.535-0.145
					c-0.502-0.094-0.947-0.252-1.334-0.475c-0.391-0.223-0.711-0.516-0.959-0.879c-0.252-0.365-0.389-0.822-0.414-1.373h2.357
					C108.216,28.906,108.271,29.115,108.38,29.287L108.38,29.287z"/>
			</g>
			<rect x="115.246" y="28.885" fill="#FFFFFF" width="2.738" height="2.443"/>
			<path fill="#FFFFFF" d="M123.779,24.604c-0.396,0-0.729,0.08-0.996,0.24c-0.268,0.17-0.484,0.375-0.654,0.637
				c-0.168,0.26-0.287,0.545-0.357,0.857c-0.07,0.316-0.105,0.623-0.105,0.932c0,0.293,0.035,0.594,0.105,0.9
				c0.07,0.309,0.182,0.586,0.34,0.834s0.367,0.453,0.637,0.607c0.27,0.162,0.596,0.24,0.977,0.24c0.592,0,1.051-0.15,1.371-0.451
				c0.318-0.303,0.52-0.707,0.602-1.213h2.391c-0.164,1.09-0.629,1.92-1.396,2.488c-0.768,0.572-1.75,0.857-2.951,0.857
				c-0.672,0-1.291-0.104-1.857-0.311c-0.562-0.205-1.043-0.492-1.438-0.861c-0.395-0.373-0.705-0.814-0.924-1.328
				c-0.223-0.514-0.332-1.074-0.332-1.689c0-0.635,0.102-1.221,0.305-1.768c0.203-0.545,0.502-1.016,0.898-1.41
				c0.395-0.398,0.877-0.705,1.449-0.926c0.57-0.225,1.221-0.336,1.951-0.336c0.537,0,1.049,0.062,1.545,0.191
				c0.496,0.125,0.938,0.318,1.324,0.58c0.393,0.256,0.709,0.582,0.953,0.963c0.244,0.389,0.383,0.844,0.418,1.375h-2.426
				C125.445,25.07,124.833,24.604,123.779,24.604L123.779,24.604z"/>
			<path fill="#FFFFFF" d="M131.259,28.193c0.07,0.312,0.189,0.594,0.357,0.84c0.17,0.252,0.393,0.447,0.674,0.596
				c0.277,0.148,0.627,0.223,1.045,0.223c0.42,0,0.771-0.074,1.057-0.223s0.512-0.344,0.68-0.596
				c0.168-0.246,0.289-0.527,0.357-0.84c0.072-0.309,0.105-0.631,0.105-0.957c0-0.328-0.033-0.65-0.105-0.971
				c-0.068-0.316-0.189-0.598-0.357-0.84s-0.395-0.441-0.68-0.594c-0.285-0.154-0.637-0.229-1.057-0.229
				c-0.418,0-0.768,0.074-1.045,0.229c-0.281,0.152-0.504,0.352-0.674,0.594c-0.168,0.242-0.287,0.523-0.357,0.84
				c-0.068,0.32-0.102,0.643-0.102,0.971C131.158,27.562,131.191,27.885,131.259,28.193L131.259,28.193z M129.011,25.447
				c0.219-0.531,0.533-0.984,0.941-1.361c0.406-0.375,0.896-0.666,1.463-0.873c0.57-0.207,1.211-0.309,1.92-0.309
				s1.354,0.102,1.93,0.309c0.574,0.207,1.064,0.498,1.473,0.873c0.408,0.377,0.723,0.83,0.941,1.361
				c0.221,0.537,0.334,1.131,0.334,1.789c0,0.654-0.113,1.246-0.334,1.777c-0.219,0.527-0.533,0.977-0.941,1.352
				c-0.408,0.377-0.898,0.664-1.473,0.869c-0.576,0.197-1.221,0.299-1.93,0.299s-1.35-0.102-1.92-0.299
				c-0.566-0.205-1.057-0.492-1.463-0.869c-0.408-0.375-0.723-0.824-0.941-1.352c-0.223-0.531-0.332-1.123-0.332-1.777
				C128.679,26.578,128.789,25.984,129.011,25.447L129.011,25.447z"/>
			<path fill="#FFFFFF" d="M141.501,23.123v1.113h0.033c0.328-0.422,0.719-0.75,1.18-0.982c0.457-0.236,0.986-0.35,1.578-0.35
				c0.57,0,1.09,0.1,1.561,0.301c0.471,0.203,0.83,0.557,1.074,1.062c0.266-0.361,0.631-0.676,1.088-0.951
				c0.457-0.273,1.004-0.412,1.633-0.412c0.477,0,0.918,0.051,1.328,0.16c0.402,0.107,0.752,0.273,1.043,0.504
				c0.291,0.232,0.518,0.537,0.68,0.914c0.166,0.377,0.246,0.828,0.246,1.355v5.49h-2.477V26.68c0-0.275-0.014-0.533-0.037-0.773
				c-0.023-0.248-0.084-0.459-0.191-0.639c-0.105-0.182-0.256-0.32-0.461-0.428c-0.205-0.109-0.479-0.158-0.83-0.158
				c-0.35,0-0.631,0.061-0.846,0.18c-0.215,0.123-0.383,0.281-0.506,0.479c-0.121,0.195-0.205,0.418-0.244,0.666
				c-0.041,0.248-0.061,0.496-0.061,0.752v4.57h-2.477v-4.602c0-0.242-0.008-0.48-0.02-0.721c-0.012-0.236-0.062-0.459-0.145-0.658
				c-0.09-0.201-0.234-0.363-0.438-0.486c-0.205-0.119-0.506-0.18-0.9-0.18c-0.117,0-0.27,0.023-0.461,0.072
				c-0.193,0.043-0.379,0.135-0.561,0.268c-0.18,0.133-0.334,0.322-0.463,0.572c-0.127,0.246-0.189,0.572-0.189,0.975v4.76h-2.477
				v-8.205H141.501z"/>
			<path fill="#FFFFFF" d="M49.542,15.43c0.271-0.148,0.492-0.342,0.662-0.578c0.168-0.238,0.287-0.516,0.357-0.832
				s0.105-0.643,0.105-0.969c0-0.324-0.039-0.648-0.113-0.969c-0.078-0.314-0.201-0.598-0.377-0.848s-0.396-0.449-0.67-0.602
				c-0.273-0.156-0.609-0.23-1.004-0.23c-0.406,0-0.748,0.074-1.02,0.23c-0.273,0.152-0.496,0.352-0.664,0.594
				c-0.17,0.242-0.287,0.525-0.357,0.842c-0.068,0.318-0.105,0.645-0.105,0.982c0,0.326,0.039,0.652,0.113,0.969
				c0.076,0.316,0.197,0.594,0.367,0.832c0.168,0.236,0.391,0.43,0.67,0.578c0.281,0.15,0.615,0.223,1.014,0.223
				C48.927,15.652,49.269,15.58,49.542,15.43L49.542,15.43z M46.322,8.928v1.049h0.035c0.303-0.443,0.686-0.768,1.15-0.973
				c0.467-0.201,0.979-0.299,1.537-0.299c0.709,0,1.32,0.123,1.832,0.365s0.934,0.566,1.271,0.969
				c0.338,0.398,0.586,0.869,0.754,1.404c0.16,0.533,0.242,1.09,0.242,1.672c0,0.551-0.082,1.078-0.242,1.586
				c-0.168,0.508-0.414,0.957-0.744,1.35c-0.332,0.391-0.744,0.703-1.238,0.936c-0.492,0.23-1.072,0.348-1.738,0.348
				c-0.557,0-1.07-0.102-1.541-0.309c-0.473-0.205-0.859-0.51-1.162-0.916h-0.033V20h-2.477V8.928H46.322z"/>
			<path fill="#FFFFFF" d="M59.328,13.311c-0.156,0.051-0.326,0.09-0.506,0.121c-0.182,0.033-0.369,0.059-0.566,0.08
				s-0.396,0.047-0.594,0.078c-0.186,0.031-0.367,0.076-0.553,0.129c-0.178,0.053-0.334,0.123-0.467,0.213
				c-0.135,0.09-0.242,0.205-0.324,0.34c-0.08,0.137-0.123,0.312-0.123,0.525c0,0.203,0.043,0.369,0.123,0.51
				c0.082,0.139,0.193,0.242,0.334,0.324c0.139,0.076,0.301,0.133,0.484,0.166c0.188,0.031,0.379,0.045,0.578,0.045
				c0.488,0,0.863-0.072,1.133-0.219c0.268-0.15,0.467-0.33,0.594-0.535c0.127-0.207,0.207-0.412,0.234-0.625
				c0.029-0.211,0.045-0.381,0.045-0.508v-0.84C59.615,13.201,59.486,13.264,59.328,13.311L59.328,13.311z M54.435,10.133
				c0.256-0.348,0.582-0.629,0.977-0.838c0.395-0.213,0.84-0.365,1.336-0.453c0.492-0.092,0.99-0.137,1.488-0.137
				c0.455,0,0.914,0.027,1.379,0.088c0.465,0.059,0.893,0.172,1.275,0.34c0.383,0.17,0.697,0.406,0.939,0.709
				c0.246,0.299,0.367,0.699,0.367,1.195v4.27c0,0.365,0.023,0.723,0.07,1.062c0.047,0.338,0.129,0.592,0.242,0.76H60
				c-0.047-0.129-0.084-0.258-0.113-0.387c-0.029-0.133-0.049-0.27-0.061-0.406c-0.396,0.371-0.861,0.631-1.396,0.777
				s-1.082,0.221-1.639,0.221c-0.434,0-0.834-0.045-1.207-0.143c-0.371-0.096-0.697-0.24-0.975-0.443
				c-0.279-0.201-0.496-0.455-0.654-0.762c-0.158-0.305-0.236-0.672-0.236-1.094c0-0.465,0.09-0.848,0.271-1.15
				c0.18-0.303,0.414-0.541,0.697-0.723s0.611-0.314,0.977-0.404c0.367-0.092,0.736-0.162,1.107-0.213
				c0.371-0.053,0.74-0.098,1.102-0.129c0.357-0.031,0.68-0.08,0.959-0.143c0.277-0.062,0.498-0.154,0.662-0.277
				c0.164-0.121,0.238-0.299,0.227-0.531c0-0.244-0.045-0.436-0.131-0.578c-0.088-0.143-0.201-0.254-0.348-0.334
				c-0.146-0.078-0.316-0.133-0.508-0.158c-0.191-0.027-0.4-0.041-0.619-0.041c-0.488,0-0.873,0.096-1.15,0.287
				c-0.279,0.189-0.441,0.508-0.488,0.951h-2.479C54.033,10.92,54.179,10.479,54.435,10.133L54.435,10.133z"/>
			<path fill="#FFFFFF" d="M68.722,15.004c0.266-0.129,0.486-0.299,0.662-0.508c0.174-0.211,0.303-0.451,0.393-0.723
				c0.086-0.271,0.133-0.553,0.133-0.85c0-0.336-0.037-0.656-0.105-0.957c-0.07-0.303-0.188-0.572-0.35-0.801
				c-0.164-0.234-0.379-0.42-0.645-0.557c-0.268-0.137-0.607-0.207-1.012-0.207c-0.35,0-0.65,0.062-0.898,0.191
				c-0.254,0.123-0.461,0.295-0.631,0.514c-0.17,0.217-0.287,0.469-0.363,0.746c-0.078,0.279-0.115,0.574-0.115,0.881
				c0,0.297,0.031,0.59,0.096,0.881c0.064,0.293,0.174,0.551,0.332,0.785c0.154,0.23,0.361,0.424,0.621,0.57
				c0.252,0.15,0.574,0.223,0.959,0.223C68.144,15.193,68.453,15.127,68.722,15.004L68.722,15.004z M72.115,17.732
				c-0.1,0.422-0.312,0.816-0.637,1.182c-0.326,0.363-0.799,0.674-1.414,0.928c-0.615,0.256-1.441,0.379-2.475,0.379
				c-0.443,0-0.893-0.049-1.355-0.15c-0.457-0.1-0.875-0.252-1.254-0.469c-0.379-0.209-0.693-0.482-0.943-0.816
				c-0.248-0.33-0.391-0.73-0.426-1.197h2.459c0.117,0.424,0.344,0.715,0.678,0.881c0.34,0.164,0.729,0.244,1.172,0.244
				c0.699,0,1.207-0.189,1.525-0.568c0.32-0.381,0.475-0.863,0.465-1.447v-1.074h-0.037c-0.268,0.432-0.646,0.752-1.145,0.959
				c-0.492,0.205-1.014,0.309-1.557,0.309c-0.678,0-1.258-0.107-1.746-0.324c-0.49-0.217-0.889-0.512-1.207-0.889
				c-0.312-0.375-0.541-0.812-0.688-1.318c-0.145-0.502-0.217-1.031-0.217-1.596c0-0.527,0.082-1.037,0.252-1.529
				c0.17-0.49,0.414-0.926,0.742-1.299c0.328-0.375,0.729-0.674,1.209-0.898c0.486-0.221,1.043-0.332,1.668-0.332
				c0.596,0,1.115,0.098,1.562,0.299c0.447,0.205,0.822,0.541,1.125,1.018h0.037V8.928h2.354v7.68
				C72.263,16.932,72.212,17.307,72.115,17.732L72.115,17.732z"/>
			<path fill="#FFFFFF" d="M76.277,17.129h-2.479V8.928h2.479V17.129z M73.798,5.805h2.479v1.852h-2.479V5.805z"/>
			<path fill="#FFFFFF" d="M80.062,8.928v1.145h0.049c0.316-0.479,0.723-0.826,1.223-1.043c0.498-0.213,1.014-0.324,1.535-0.324
				c0.662,0,1.207,0.082,1.633,0.246c0.422,0.164,0.758,0.395,1,0.682c0.246,0.293,0.418,0.645,0.518,1.062
				c0.098,0.418,0.143,0.883,0.143,1.387v5.047h-2.473v-4.635c0-0.674-0.115-1.18-0.348-1.512c-0.234-0.334-0.646-0.504-1.238-0.504
				c-0.676,0-1.166,0.186-1.465,0.551c-0.307,0.365-0.457,0.965-0.457,1.801v4.299h-2.475V8.928H80.062z"/>
			<path fill="#FFFFFF" d="M92.751,13.311c-0.156,0.051-0.326,0.09-0.506,0.121c-0.182,0.033-0.367,0.059-0.566,0.08
				s-0.396,0.047-0.596,0.078c-0.184,0.031-0.367,0.076-0.549,0.129c-0.178,0.053-0.338,0.123-0.469,0.213
				c-0.135,0.09-0.242,0.205-0.324,0.34c-0.08,0.137-0.121,0.312-0.121,0.525c0,0.203,0.041,0.369,0.121,0.51
				c0.082,0.139,0.193,0.242,0.33,0.324c0.143,0.076,0.303,0.133,0.49,0.166c0.188,0.031,0.377,0.045,0.576,0.045
				c0.488,0,0.865-0.072,1.131-0.219c0.271-0.15,0.467-0.33,0.592-0.535c0.131-0.207,0.209-0.412,0.24-0.625
				c0.027-0.211,0.043-0.381,0.043-0.508v-0.84C93.041,13.201,92.908,13.264,92.751,13.311L92.751,13.311z M87.859,10.133
				c0.254-0.348,0.58-0.629,0.977-0.838c0.395-0.213,0.84-0.365,1.334-0.453c0.492-0.092,0.992-0.137,1.492-0.137
				c0.453,0,0.912,0.027,1.379,0.088c0.463,0.059,0.889,0.172,1.271,0.34c0.385,0.17,0.697,0.406,0.941,0.709
				c0.246,0.299,0.367,0.699,0.367,1.195v4.27c0,0.365,0.025,0.723,0.07,1.062c0.041,0.338,0.127,0.592,0.244,0.76h-2.512
				c-0.049-0.129-0.084-0.258-0.115-0.387c-0.027-0.133-0.049-0.27-0.061-0.406c-0.395,0.371-0.859,0.631-1.395,0.777
				s-1.084,0.221-1.639,0.221c-0.434,0-0.832-0.045-1.205-0.143c-0.371-0.096-0.697-0.24-0.977-0.443
				c-0.279-0.201-0.496-0.455-0.654-0.762c-0.158-0.305-0.234-0.672-0.234-1.094c0-0.465,0.09-0.848,0.27-1.15
				s0.412-0.541,0.697-0.723c0.287-0.182,0.609-0.314,0.979-0.404c0.365-0.092,0.734-0.162,1.105-0.213
				c0.371-0.053,0.74-0.098,1.102-0.129c0.357-0.031,0.676-0.08,0.959-0.143c0.277-0.062,0.498-0.154,0.662-0.277
				c0.162-0.121,0.238-0.299,0.227-0.531c0-0.244-0.043-0.436-0.131-0.578s-0.203-0.254-0.348-0.334
				c-0.146-0.078-0.316-0.133-0.508-0.158c-0.191-0.027-0.396-0.041-0.617-0.041c-0.49,0-0.875,0.096-1.152,0.287
				c-0.279,0.189-0.443,0.508-0.488,0.951h-2.479C87.457,10.92,87.599,10.479,87.859,10.133L87.859,10.133z"/>
			<path fill="#FFFFFF" d="M99.103,15.088c0.109,0.176,0.252,0.32,0.426,0.432s0.373,0.189,0.602,0.244
				c0.227,0.055,0.463,0.078,0.705,0.078c0.176,0,0.359-0.016,0.551-0.053c0.189-0.037,0.369-0.096,0.523-0.176
				c0.156-0.08,0.285-0.186,0.393-0.32c0.105-0.127,0.156-0.293,0.156-0.496c0-0.338-0.246-0.594-0.744-0.76
				c-0.49-0.17-1.18-0.34-2.062-0.508c-0.363-0.078-0.715-0.164-1.057-0.266c-0.344-0.098-0.646-0.23-0.916-0.395
				c-0.266-0.164-0.482-0.369-0.648-0.621c-0.16-0.246-0.242-0.549-0.242-0.91c0-0.527,0.115-0.963,0.342-1.299
				c0.227-0.338,0.525-0.607,0.898-0.801c0.369-0.197,0.793-0.336,1.256-0.414c0.465-0.078,0.939-0.119,1.432-0.119
				c0.484,0,0.959,0.041,1.42,0.127c0.459,0.086,0.871,0.227,1.23,0.43c0.359,0.201,0.66,0.469,0.898,0.801
				c0.236,0.332,0.381,0.752,0.43,1.26h-2.355c-0.037-0.436-0.219-0.727-0.541-0.883c-0.328-0.152-0.711-0.229-1.152-0.229
				c-0.141,0-0.291,0.008-0.455,0.023c-0.162,0.018-0.309,0.051-0.443,0.102c-0.135,0.057-0.25,0.133-0.34,0.234
				c-0.094,0.1-0.141,0.234-0.141,0.402c0,0.199,0.08,0.365,0.246,0.492c0.16,0.127,0.375,0.23,0.637,0.311
				c0.26,0.078,0.561,0.15,0.895,0.213c0.34,0.066,0.684,0.135,1.031,0.205c0.359,0.074,0.713,0.164,1.055,0.271
				c0.344,0.107,0.648,0.248,0.916,0.42c0.268,0.174,0.484,0.391,0.648,0.65c0.158,0.258,0.24,0.58,0.24,0.961
				c0,0.541-0.117,0.99-0.355,1.357c-0.238,0.359-0.551,0.656-0.938,0.877c-0.381,0.225-0.82,0.383-1.314,0.469
				c-0.492,0.092-0.998,0.135-1.508,0.135c-0.523,0-1.035-0.045-1.535-0.143c-0.5-0.096-0.945-0.254-1.336-0.477
				c-0.389-0.223-0.709-0.514-0.959-0.879c-0.248-0.363-0.387-0.822-0.41-1.373h2.355C98.935,14.705,98.99,14.914,99.103,15.088
				L99.103,15.088z"/>
		</g>
		<path fill="#FFBE00" d="M38.187,19.99c0.006,9.664-7.826,17.502-17.49,17.51c-9.666,0.006-17.504-7.824-17.51-17.492
			C3.181,10.346,11.013,2.506,20.675,2.5C30.341,2.492,38.181,10.324,38.187,19.99"/>
		<g>
			<path fill="#150C0C" d="M18.31,22.682c-0.152,0.031-0.312,0.061-0.48,0.084c-0.166,0.023-0.336,0.047-0.502,0.08
				c-0.158,0.033-0.314,0.078-0.465,0.133c-0.154,0.057-0.289,0.129-0.4,0.221c-0.113,0.09-0.205,0.211-0.275,0.352
				c-0.068,0.143-0.104,0.32-0.104,0.541c0,0.205,0.035,0.383,0.104,0.525c0.07,0.141,0.164,0.252,0.281,0.332
				c0.121,0.082,0.256,0.141,0.412,0.174c0.16,0.031,0.324,0.049,0.492,0.049c0.414,0,0.734-0.076,0.961-0.227
				c0.227-0.154,0.393-0.338,0.502-0.551c0.107-0.215,0.178-0.428,0.199-0.645c0.023-0.221,0.039-0.395,0.039-0.527v-0.867
				c-0.088,0.086-0.201,0.152-0.334,0.205C18.607,22.607,18.464,22.652,18.31,22.682"/>
			<path fill="#150C0C" d="M22.539,8.713c-0.037,0-0.07,0.002-0.104,0.002V8.713h-3.273H11.4v18.01v4.564h7.762v-4.062v-0.502V25.68
				c-0.336,0.381-0.73,0.65-1.184,0.805c-0.453,0.15-0.918,0.225-1.389,0.225c-0.367,0-0.707-0.047-1.021-0.145
				c-0.316-0.098-0.594-0.248-0.828-0.457c-0.238-0.209-0.426-0.471-0.557-0.785c-0.131-0.32-0.199-0.695-0.199-1.133
				c0-0.479,0.078-0.875,0.229-1.188c0.154-0.309,0.352-0.561,0.594-0.744c0.24-0.184,0.516-0.324,0.828-0.42
				c0.311-0.092,0.623-0.166,0.938-0.223c0.316-0.051,0.627-0.096,0.932-0.125c0.307-0.035,0.58-0.082,0.812-0.148
				c0.238-0.07,0.424-0.164,0.564-0.289c0.139-0.125,0.203-0.309,0.193-0.547c0-0.254-0.039-0.451-0.111-0.602
				c-0.076-0.145-0.174-0.256-0.297-0.342c-0.125-0.08-0.266-0.137-0.43-0.162c-0.162-0.027-0.338-0.043-0.523-0.043
				c-0.414,0-0.742,0.102-0.977,0.295c-0.238,0.197-0.375,0.525-0.416,0.986h-2.1c0.029-0.545,0.152-1.002,0.369-1.361
				c0.219-0.363,0.496-0.65,0.83-0.871c0.334-0.215,0.709-0.369,1.131-0.467c0.42-0.09,0.84-0.133,1.266-0.133
				c0.385,0,0.771,0.029,1.17,0.086c0.391,0.061,0.754,0.178,1.078,0.354c0.324,0.172,0.592,0.416,0.799,0.729
				c0.207,0.311,0.312,0.723,0.312,1.236v6.512h1.26v-0.004c0.033,0,0.066,0.004,0.104,0.004c4.971,0,9.002-4.033,9.002-9.004
				C31.541,12.746,27.509,8.713,22.539,8.713"/>
			<path fill="#FFBE00" d="M24.332,24.107c0,0.582-0.467,1.053-1.047,1.053c-0.582,0-1.051-0.471-1.051-1.053
				c0-0.578,0.469-1.051,1.051-1.051C23.865,23.057,24.332,23.529,24.332,24.107"/>
		</g>
	</g>
</g>
<g id="área_visible">
</g>
</svg>
